<svg width="512" height="512" viewBox="0 0 512 512" fill="none" xmlns="http://www.w3.org/2000/svg">
<circle cx="256" cy="256" r="250" fill="url(#paint0_linear_93_57)"/>
<g filter="url(#filter0_i_93_57)">
<circle cx="256" cy="256" r="230" fill="url(#paint1_linear_93_57)"/>
</g>
<g filter="url(#filter1_i_93_57)">
<circle cx="255.5" cy="256.5" r="177.5" transform="rotate(-49.6971 255.5 256.5)" fill="url(#paint2_linear_93_57)"/>
</g>
<g filter="url(#filter2_d_93_57)">
<path d="M250.938 181.382C-21.8225 225.635 179.804 345.38 314.713 399.721C25.4047 275.362 164.795 220.021 270.653 207.895L284.581 204.884L270.244 178.709L250.938 181.382Z" fill="url(#paint3_linear_93_57)"/>
</g>
<g filter="url(#filter3_d_93_57)">
<mask id="path-5-inside-1_93_57" fill="white">
<path d="M113.977 208.318C121.551 186.073 134.261 165.926 151.078 149.513C167.895 133.099 188.344 120.881 210.766 113.85L213.871 123.751C193.005 130.294 173.976 141.664 158.326 156.939C142.676 172.213 130.848 190.961 123.8 211.662L113.977 208.318Z"/>
</mask>
<path d="M113.977 208.318C121.551 186.073 134.261 165.926 151.078 149.513C167.895 133.099 188.344 120.881 210.766 113.85L213.871 123.751C193.005 130.294 173.976 141.664 158.326 156.939C142.676 172.213 130.848 190.961 123.8 211.662L113.977 208.318Z" fill="#181C30"/>
<path d="M113.977 208.318C121.551 186.073 134.261 165.926 151.078 149.513C167.895 133.099 188.344 120.881 210.766 113.85L213.871 123.751C193.005 130.294 173.976 141.664 158.326 156.939C142.676 172.213 130.848 190.961 123.8 211.662L113.977 208.318Z" stroke="#00B015" stroke-width="12" mask="url(#path-5-inside-1_93_57)"/>
</g>
<g filter="url(#filter4_d_93_57)">
<mask id="path-6-inside-2_93_57" fill="white">
<path d="M318.739 121.034C354.667 137.806 382.461 168.163 396.006 205.428L387.398 208.556C374.683 173.575 348.592 145.077 314.865 129.333L318.739 121.034Z"/>
</mask>
<path d="M318.739 121.034C354.667 137.806 382.461 168.163 396.006 205.428L387.398 208.556C374.683 173.575 348.592 145.077 314.865 129.333L318.739 121.034Z" fill="#181C30"/>
<path d="M318.739 121.034C354.667 137.806 382.461 168.163 396.006 205.428L387.398 208.556C374.683 173.575 348.592 145.077 314.865 129.333L318.739 121.034Z" stroke="#FF0000" stroke-width="12" mask="url(#path-6-inside-2_93_57)"/>
</g>
<g filter="url(#filter5_d_93_57)">
<mask id="path-7-inside-3_93_57" fill="white">
<path d="M189.957 122.133C210.877 111.929 233.891 106.75 257.166 107.009C280.441 107.269 303.334 112.959 324.021 123.628L319.568 132.264C300.225 122.289 278.82 116.968 257.058 116.725C235.296 116.483 213.777 121.325 194.217 130.866L189.957 122.133Z"/>
</mask>
<path d="M189.957 122.133C210.877 111.929 233.891 106.75 257.166 107.009C280.441 107.269 303.334 112.959 324.021 123.628L319.568 132.264C300.225 122.289 278.82 116.968 257.058 116.725C235.296 116.483 213.777 121.325 194.217 130.866L189.957 122.133Z" fill="#181C30"/>
<path d="M189.957 122.133C210.877 111.929 233.891 106.75 257.166 107.009C280.441 107.269 303.334 112.959 324.021 123.628L319.568 132.264C300.225 122.289 278.82 116.968 257.058 116.725C235.296 116.483 213.777 121.325 194.217 130.866L189.957 122.133Z" stroke="white" stroke-width="12" mask="url(#path-7-inside-3_93_57)"/>
</g>
<g filter="url(#filter6_dd_93_57)">
<path d="M256.142 193.92L240.8 232.932L349.891 175.631L242.692 172.453L256.142 193.92Z" fill="#525252"/>
</g>
<g filter="url(#filter7_d_93_57)">
<path d="M179 304L182.04 299.2L199 280.48L179 256.96H199.08L208.92 271.44H209.8L219.64 256.96H239.72L236.6 261.68L219.72 280.48L239.72 304H219.64L209.8 289.44H208.92L199.08 304H179ZM259.121 304C253.468 304 249.335 302.747 246.721 300.24C244.161 297.68 242.881 293.627 242.881 288.08V272.8C242.881 267.36 244.161 263.36 246.721 260.8C249.281 258.24 253.415 256.96 259.121 256.96H282.481C288.081 256.96 292.161 258.24 294.721 260.8C297.335 263.36 298.641 267.36 298.641 272.8V288.08C298.641 293.627 297.335 297.68 294.721 300.24C292.108 302.747 288.028 304 282.481 304H259.121ZM264.641 293.12H277.041C281.201 293.12 283.281 291.227 283.281 287.44V273.44C283.281 269.707 281.201 267.84 277.041 267.84H264.641C262.508 267.84 260.908 268.267 259.841 269.12C258.775 269.973 258.241 271.413 258.241 273.44V287.44C258.241 289.413 258.775 290.853 259.841 291.76C260.908 292.667 262.508 293.12 264.641 293.12ZM301.812 304L304.853 299.2L321.812 280.48L301.812 256.96H321.893L331.733 271.44H332.613L342.453 256.96H362.533L359.413 261.68L342.533 280.48L362.533 304H342.453L332.613 289.44H331.733L321.893 304H301.812ZM381.934 304C376.28 304 372.147 302.747 369.534 300.24C366.974 297.68 365.694 293.627 365.694 288.08V272.8C365.694 267.36 366.974 263.36 369.534 260.8C372.094 258.24 376.227 256.96 381.934 256.96H405.294C410.894 256.96 414.974 258.24 417.534 260.8C420.147 263.36 421.454 267.36 421.454 272.8V288.08C421.454 293.627 420.147 297.68 417.534 300.24C414.92 302.747 410.84 304 405.294 304H381.934ZM387.454 293.12H399.854C404.014 293.12 406.094 291.227 406.094 287.44V273.44C406.094 269.707 404.014 267.84 399.854 267.84H387.454C385.32 267.84 383.72 268.267 382.654 269.12C381.587 269.973 381.054 271.413 381.054 273.44V287.44C381.054 289.413 381.587 290.853 382.654 291.76C383.72 292.667 385.32 293.12 387.454 293.12Z" fill="white"/>
</g>
<g filter="url(#filter8_i_93_57)">
<path d="M134.702 328.371C134.055 337.076 139.788 340.074 142.736 340.485C135.962 340.16 133.975 344.896 133.755 347.854C133.753 348.08 133.746 348.311 133.735 348.547C133.731 348.331 133.737 348.099 133.755 347.854C133.814 341.479 130.237 339.75 127.621 339.637C127.235 339.699 126.83 339.723 126.406 339.703C126.769 339.645 127.181 339.618 127.621 339.637C132.45 338.856 134.352 331.974 134.702 328.371Z" fill="white"/>
</g>
<g filter="url(#filter9_i_93_57)">
<path d="M358.702 199.371C358.055 208.076 363.788 211.074 366.736 211.485C359.962 211.16 357.975 215.896 357.755 218.854C357.753 219.08 357.746 219.311 357.735 219.547C357.731 219.331 357.737 219.099 357.755 218.854C357.814 212.479 354.237 210.75 351.621 210.637C351.235 210.699 350.83 210.723 350.406 210.703C350.769 210.645 351.181 210.618 351.621 210.637C356.45 209.856 358.352 202.974 358.702 199.371Z" fill="white"/>
</g>
<g filter="url(#filter10_i_93_57)">
<path d="M343.627 237.261C343.982 229.876 338.826 227.466 336.204 227.184C342.216 227.307 343.857 223.253 343.978 220.744C343.975 220.553 343.975 220.358 343.979 220.157C343.988 220.34 343.988 220.537 343.978 220.744C344.086 226.143 347.299 227.527 349.621 227.564C349.961 227.503 350.319 227.474 350.695 227.482C350.375 227.539 350.01 227.57 349.621 227.564C345.361 228.333 343.847 234.202 343.627 237.261Z" fill="white"/>
</g>
<g filter="url(#filter11_i_93_57)">
<path d="M196.702 147.371C196.055 156.076 201.788 159.074 204.736 159.485C197.962 159.16 195.975 163.896 195.755 166.854C195.753 167.08 195.746 167.311 195.735 167.547C195.731 167.331 195.737 167.099 195.755 166.854C195.814 160.479 192.237 158.75 189.621 158.637C189.235 158.699 188.83 158.723 188.406 158.703C188.769 158.645 189.181 158.618 189.621 158.637C194.45 157.856 196.352 150.974 196.702 147.371Z" fill="white"/>
</g>
<defs>
<filter id="filter0_i_93_57" x="26" y="26" width="460" height="464" filterUnits="userSpaceOnUse" color-interpolation-filters="sRGB">
<feFlood flood-opacity="0" result="BackgroundImageFix"/>
<feBlend mode="normal" in="SourceGraphic" in2="BackgroundImageFix" result="shape"/>
<feColorMatrix in="SourceAlpha" type="matrix" values="0 0 0 0 0 0 0 0 0 0 0 0 0 0 0 0 0 0 127 0" result="hardAlpha"/>
<feOffset dy="4"/>
<feGaussianBlur stdDeviation="2"/>
<feComposite in2="hardAlpha" operator="arithmetic" k2="-1" k3="1"/>
<feColorMatrix type="matrix" values="0 0 0 0 0 0 0 0 0 0 0 0 0 0 0 0 0 0 0.25 0"/>
<feBlend mode="normal" in2="shape" result="effect1_innerShadow_93_57"/>
</filter>
<filter id="filter1_i_93_57" x="77.9966" y="78.9963" width="355.007" height="359.007" filterUnits="userSpaceOnUse" color-interpolation-filters="sRGB">
<feFlood flood-opacity="0" result="BackgroundImageFix"/>
<feBlend mode="normal" in="SourceGraphic" in2="BackgroundImageFix" result="shape"/>
<feColorMatrix in="SourceAlpha" type="matrix" values="0 0 0 0 0 0 0 0 0 0 0 0 0 0 0 0 0 0 127 0" result="hardAlpha"/>
<feOffset dy="4"/>
<feGaussianBlur stdDeviation="2"/>
<feComposite in2="hardAlpha" operator="arithmetic" k2="-1" k3="1"/>
<feColorMatrix type="matrix" values="0 0 0 0 0 0 0 0 0 0 0 0 0 0 0 0 0 0 0.25 0"/>
<feBlend mode="normal" in2="shape" result="effect1_innerShadow_93_57"/>
</filter>
<filter id="filter2_d_93_57" x="111.548" y="178.709" width="207.165" height="229.011" filterUnits="userSpaceOnUse" color-interpolation-filters="sRGB">
<feFlood flood-opacity="0" result="BackgroundImageFix"/>
<feColorMatrix in="SourceAlpha" type="matrix" values="0 0 0 0 0 0 0 0 0 0 0 0 0 0 0 0 0 0 127 0" result="hardAlpha"/>
<feOffset dy="4"/>
<feGaussianBlur stdDeviation="2"/>
<feComposite in2="hardAlpha" operator="out"/>
<feColorMatrix type="matrix" values="0 0 0 0 0 0 0 0 0 0 0 0 0 0 0 0 0 0 0.25 0"/>
<feBlend mode="normal" in2="BackgroundImageFix" result="effect1_dropShadow_93_57"/>
<feBlend mode="normal" in="SourceGraphic" in2="effect1_dropShadow_93_57" result="shape"/>
</filter>
<filter id="filter3_d_93_57" x="109.977" y="113.85" width="107.894" height="107.813" filterUnits="userSpaceOnUse" color-interpolation-filters="sRGB">
<feFlood flood-opacity="0" result="BackgroundImageFix"/>
<feColorMatrix in="SourceAlpha" type="matrix" values="0 0 0 0 0 0 0 0 0 0 0 0 0 0 0 0 0 0 127 0" result="hardAlpha"/>
<feOffset dy="6"/>
<feGaussianBlur stdDeviation="2"/>
<feComposite in2="hardAlpha" operator="out"/>
<feColorMatrix type="matrix" values="0 0 0 0 0 0 0 0 0 0 0 0 0 0 0 0 0 0 0.25 0"/>
<feBlend mode="normal" in2="BackgroundImageFix" result="effect1_dropShadow_93_57"/>
<feBlend mode="normal" in="SourceGraphic" in2="effect1_dropShadow_93_57" result="shape"/>
</filter>
<filter id="filter4_d_93_57" x="310.865" y="121.034" width="89.1409" height="97.5226" filterUnits="userSpaceOnUse" color-interpolation-filters="sRGB">
<feFlood flood-opacity="0" result="BackgroundImageFix"/>
<feColorMatrix in="SourceAlpha" type="matrix" values="0 0 0 0 0 0 0 0 0 0 0 0 0 0 0 0 0 0 127 0" result="hardAlpha"/>
<feOffset dy="6"/>
<feGaussianBlur stdDeviation="2"/>
<feComposite in2="hardAlpha" operator="out"/>
<feColorMatrix type="matrix" values="0 0 0 0 0 0 0 0 0 0 0 0 0 0 0 0 0 0 0.25 0"/>
<feBlend mode="normal" in2="BackgroundImageFix" result="effect1_dropShadow_93_57"/>
<feBlend mode="normal" in="SourceGraphic" in2="effect1_dropShadow_93_57" result="shape"/>
</filter>
<filter id="filter5_d_93_57" x="185.957" y="107" width="142.064" height="35.2635" filterUnits="userSpaceOnUse" color-interpolation-filters="sRGB">
<feFlood flood-opacity="0" result="BackgroundImageFix"/>
<feColorMatrix in="SourceAlpha" type="matrix" values="0 0 0 0 0 0 0 0 0 0 0 0 0 0 0 0 0 0 127 0" result="hardAlpha"/>
<feOffset dy="6"/>
<feGaussianBlur stdDeviation="2"/>
<feComposite in2="hardAlpha" operator="out"/>
<feColorMatrix type="matrix" values="0 0 0 0 0 0 0 0 0 0 0 0 0 0 0 0 0 0 0.25 0"/>
<feBlend mode="normal" in2="BackgroundImageFix" result="effect1_dropShadow_93_57"/>
<feBlend mode="normal" in="SourceGraphic" in2="effect1_dropShadow_93_57" result="shape"/>
</filter>
<filter id="filter6_dd_93_57" x="236.8" y="172.453" width="117.091" height="68.4789" filterUnits="userSpaceOnUse" color-interpolation-filters="sRGB">
<feFlood flood-opacity="0" result="BackgroundImageFix"/>
<feColorMatrix in="SourceAlpha" type="matrix" values="0 0 0 0 0 0 0 0 0 0 0 0 0 0 0 0 0 0 127 0" result="hardAlpha"/>
<feOffset dy="4"/>
<feGaussianBlur stdDeviation="2"/>
<feComposite in2="hardAlpha" operator="out"/>
<feColorMatrix type="matrix" values="0 0 0 0 0 0 0 0 0 0 0 0 0 0 0 0 0 0 0.25 0"/>
<feBlend mode="normal" in2="BackgroundImageFix" result="effect1_dropShadow_93_57"/>
<feColorMatrix in="SourceAlpha" type="matrix" values="0 0 0 0 0 0 0 0 0 0 0 0 0 0 0 0 0 0 127 0" result="hardAlpha"/>
<feOffset dy="4"/>
<feGaussianBlur stdDeviation="2"/>
<feComposite in2="hardAlpha" operator="out"/>
<feColorMatrix type="matrix" values="0 0 0 0 0 0 0 0 0 0 0 0 0 0 0 0 0 0 0.25 0"/>
<feBlend mode="normal" in2="effect1_dropShadow_93_57" result="effect2_dropShadow_93_57"/>
<feBlend mode="normal" in="SourceGraphic" in2="effect2_dropShadow_93_57" result="shape"/>
</filter>
<filter id="filter7_d_93_57" x="175" y="256.96" width="250.454" height="57.04" filterUnits="userSpaceOnUse" color-interpolation-filters="sRGB">
<feFlood flood-opacity="0" result="BackgroundImageFix"/>
<feColorMatrix in="SourceAlpha" type="matrix" values="0 0 0 0 0 0 0 0 0 0 0 0 0 0 0 0 0 0 127 0" result="hardAlpha"/>
<feOffset dy="6"/>
<feGaussianBlur stdDeviation="2"/>
<feComposite in2="hardAlpha" operator="out"/>
<feColorMatrix type="matrix" values="0 0 0 0 0 0 0 0 0 0 0 0 0 0 0 0 0 0 0.25 0"/>
<feBlend mode="normal" in2="BackgroundImageFix" result="effect1_dropShadow_93_57"/>
<feBlend mode="normal" in="SourceGraphic" in2="effect1_dropShadow_93_57" result="shape"/>
</filter>
<filter id="filter8_i_93_57" x="126.406" y="328.371" width="16.3298" height="24.1768" filterUnits="userSpaceOnUse" color-interpolation-filters="sRGB">
<feFlood flood-opacity="0" result="BackgroundImageFix"/>
<feBlend mode="normal" in="SourceGraphic" in2="BackgroundImageFix" result="shape"/>
<feColorMatrix in="SourceAlpha" type="matrix" values="0 0 0 0 0 0 0 0 0 0 0 0 0 0 0 0 0 0 127 0" result="hardAlpha"/>
<feOffset dy="4"/>
<feGaussianBlur stdDeviation="2"/>
<feComposite in2="hardAlpha" operator="arithmetic" k2="-1" k3="1"/>
<feColorMatrix type="matrix" values="0 0 0 0 0 0 0 0 0 0 0 0 0 0 0 0 0 0 0.25 0"/>
<feBlend mode="normal" in2="shape" result="effect1_innerShadow_93_57"/>
</filter>
<filter id="filter9_i_93_57" x="350.406" y="199.371" width="16.3298" height="24.1768" filterUnits="userSpaceOnUse" color-interpolation-filters="sRGB">
<feFlood flood-opacity="0" result="BackgroundImageFix"/>
<feBlend mode="normal" in="SourceGraphic" in2="BackgroundImageFix" result="shape"/>
<feColorMatrix in="SourceAlpha" type="matrix" values="0 0 0 0 0 0 0 0 0 0 0 0 0 0 0 0 0 0 127 0" result="hardAlpha"/>
<feOffset dy="4"/>
<feGaussianBlur stdDeviation="2"/>
<feComposite in2="hardAlpha" operator="arithmetic" k2="-1" k3="1"/>
<feColorMatrix type="matrix" values="0 0 0 0 0 0 0 0 0 0 0 0 0 0 0 0 0 0 0.25 0"/>
<feBlend mode="normal" in2="shape" result="effect1_innerShadow_93_57"/>
</filter>
<filter id="filter10_i_93_57" x="336.204" y="220.157" width="14.4912" height="21.104" filterUnits="userSpaceOnUse" color-interpolation-filters="sRGB">
<feFlood flood-opacity="0" result="BackgroundImageFix"/>
<feBlend mode="normal" in="SourceGraphic" in2="BackgroundImageFix" result="shape"/>
<feColorMatrix in="SourceAlpha" type="matrix" values="0 0 0 0 0 0 0 0 0 0 0 0 0 0 0 0 0 0 127 0" result="hardAlpha"/>
<feOffset dy="4"/>
<feGaussianBlur stdDeviation="2"/>
<feComposite in2="hardAlpha" operator="arithmetic" k2="-1" k3="1"/>
<feColorMatrix type="matrix" values="0 0 0 0 0 0 0 0 0 0 0 0 0 0 0 0 0 0 0.25 0"/>
<feBlend mode="normal" in2="shape" result="effect1_innerShadow_93_57"/>
</filter>
<filter id="filter11_i_93_57" x="188.406" y="147.371" width="16.3298" height="24.1768" filterUnits="userSpaceOnUse" color-interpolation-filters="sRGB">
<feFlood flood-opacity="0" result="BackgroundImageFix"/>
<feBlend mode="normal" in="SourceGraphic" in2="BackgroundImageFix" result="shape"/>
<feColorMatrix in="SourceAlpha" type="matrix" values="0 0 0 0 0 0 0 0 0 0 0 0 0 0 0 0 0 0 127 0" result="hardAlpha"/>
<feOffset dy="4"/>
<feGaussianBlur stdDeviation="2"/>
<feComposite in2="hardAlpha" operator="arithmetic" k2="-1" k3="1"/>
<feColorMatrix type="matrix" values="0 0 0 0 0 0 0 0 0 0 0 0 0 0 0 0 0 0 0.25 0"/>
<feBlend mode="normal" in2="shape" result="effect1_innerShadow_93_57"/>
</filter>
<linearGradient id="paint0_linear_93_57" x1="256" y1="6" x2="256" y2="506" gradientUnits="userSpaceOnUse">
<stop offset="0.25" stop-color="#698DAA"/>
<stop offset="1" stop-color="#2A3844"/>
</linearGradient>
<linearGradient id="paint1_linear_93_57" x1="256" y1="26" x2="256" y2="486" gradientUnits="userSpaceOnUse">
<stop offset="0.8125" stop-color="#C5E2F1"/>
<stop offset="1" stop-color="#76848E"/>
</linearGradient>
<linearGradient id="paint2_linear_93_57" x1="255.5" y1="79" x2="255.5" y2="434" gradientUnits="userSpaceOnUse">
<stop stop-color="#181C30"/>
<stop offset="0.552885" stop-color="#204794"/>
<stop offset="1" stop-color="#2D8BBD"/>
</linearGradient>
<linearGradient id="paint3_linear_93_57" x1="267.868" y1="177.847" x2="202.167" y2="358.874" gradientUnits="userSpaceOnUse">
<stop stop-color="white"/>
<stop offset="1" stop-color="#575757"/>
</linearGradient>
</defs>
</svg>
